<?xml version="1.0" standalone="no"?>
<!DOCTYPE svg PUBLIC "-//W3C//DTD SVG 20010904//EN"
 "http://www.w3.org/TR/2001/REC-SVG-20010904/DTD/svg10.dtd">
<svg version="1.0" xmlns="http://www.w3.org/2000/svg"
 width="700.000000pt" height="700.000000pt" viewBox="0 0 700.000000 700.000000"
 preserveAspectRatio="xMidYMid meet">
<metadata>
Created by potrace 1.11, written by Peter Selinger 2001-2013
</metadata>
<g transform="translate(0.000000,700.000000) scale(0.100000,-0.100000)"
fill="#000000" stroke="none">
<path d="M3278 6995 c-2 -1 -39 -5 -83 -9 -121 -9 -302 -35 -390 -56 -22 -5
-83 -19 -135 -31 -146 -33 -404 -117 -494 -160 -22 -11 -43 -19 -48 -19 -13 0
-296 -142 -378 -190 -819 -477 -1418 -1269 -1643 -2175 -78 -309 -102 -516
-102 -860 0 -196 6 -309 20 -412 10 -67 14 -99 20 -148 4 -27 10 -66 15 -85 5
-19 11 -48 14 -65 26 -147 114 -432 191 -621 43 -103 149 -318 208 -419 39
-68 184 -288 212 -323 7 -9 44 -56 82 -103 122 -155 292 -333 429 -450 28 -24
67 -58 86 -75 78 -67 416 -304 434 -304 2 0 22 -11 45 -25 183 -116 621 -296
849 -350 8 -2 53 -12 100 -24 87 -21 224 -47 295 -56 22 -2 56 -7 75 -10 194
-27 657 -27 850 1 452 66 778 166 1153 356 139 70 319 176 325 190 2 4 8 8 13
8 12 0 159 106 285 205 116 93 380 354 480 475 322 390 539 801 679 1280 36
127 89 375 100 475 4 33 9 69 11 80 30 152 24 698 -11 900 -2 17 -7 48 -10 70
-8 53 -64 313 -74 345 -5 14 -17 52 -26 85 -57 202 -197 536 -293 700 -99 170
-305 475 -341 505 -3 3 -38 43 -78 90 -125 148 -367 377 -508 481 -33 24 -62
47 -65 50 -11 13 -220 150 -315 206 -108 63 -291 155 -395 197 -36 15 -74 31
-85 35 -63 26 -88 36 -170 62 -167 55 -406 113 -550 135 -27 4 -52 8 -55 9 -3
1 -41 5 -85 10 -44 4 -89 10 -100 12 -24 4 -532 12 -537 8z"/>
</g>
</svg>
